<?xml version="1.0" standalone="no"?>
<!DOCTYPE svg PUBLIC "-//W3C//DTD SVG 20010904//EN"
 "http://www.w3.org/TR/2001/REC-SVG-20010904/DTD/svg10.dtd">
<svg version="1.0" xmlns="http://www.w3.org/2000/svg"
 width="187.000000pt" height="187.000000pt" viewBox="0 0 187.000000 187.000000"
 preserveAspectRatio="xMidYMid meet">
<metadata>
Created by potrace 1.11, written by Peter Selinger 2001-2013
</metadata>
<g transform="translate(0.000000,187.000000) scale(0.100000,-0.100000)"
fill="#000000" stroke="none">
<path d="M99 1280 c-3 -113 0 -690 4 -696 4 -7 1611 -12 1662 -5 6 1 9 71 8
194 -1 105 -2 269 -3 363 l0 170 -67 -1 c-64 -1 -68 -2 -71 -25 -3 -27 -38
-209 -48 -250 -4 -14 -7 -71 -8 -128 -2 -56 -7 -107 -13 -113 -18 -18 -53 8
-54 39 -6 100 -3 145 12 240 10 59 22 132 28 162 5 30 5 60 0 65 -4 6 -30 10
-56 9 -63 -2 -60 -1 -61 -26 0 -13 -8 -63 -17 -113 -9 -49 -23 -121 -30 -160
-6 -38 -11 -102 -9 -141 5 -80 -8 -97 -47 -65 -35 28 -31 129 12 373 11 66 18
122 14 126 -9 9 -384 9 -379 0 3 -4 -34 -72 -82 -150 -48 -78 -91 -156 -97
-173 -6 -16 -23 -51 -39 -76 -15 -25 -28 -49 -28 -53 0 -3 -10 -16 -22 -28
l-21 -21 -17 21 c-9 11 -39 70 -66 131 -27 61 -53 111 -59 111 -10 0 -85 -132
-85 -150 0 -5 -14 -31 -30 -57 -51 -81 -87 -77 -110 12 -6 22 -19 69 -30 105
-29 103 -46 218 -33 231 23 23 48 -16 59 -90 6 -39 38 -166 49 -193 4 -10 11
-16 15 -13 4 3 38 59 75 125 87 154 90 154 168 -1 32 -62 61 -115 65 -116 4
-1 43 53 87 120 44 67 102 153 130 190 27 38 48 72 45 75 -3 4 -195 7 -427 7
l-423 0 -1 -25z m1032 -321 c26 -26 22 -66 -6 -60 -60 11 -102 7 -128 -11 -15
-11 -25 -24 -21 -29 3 -6 10 -6 17 -1 7 5 34 14 61 21 53 13 55 12 142 -54 36
-28 41 -35 31 -50 -12 -15 -18 -14 -76 14 -60 28 -64 29 -99 14 -65 -27 -90
-27 -128 2 -54 41 -45 101 19 133 98 49 154 55 188 21z"/>
</g>
</svg>
